Coordinates
version=1
nRows=49
nColumns=12
inDegrees=yes

Units are S.I. units (second, meters, Newtons, ...)
Angles are in degrees

endheader
time	SC_y	SC_z	SC_x	AC_y	AC_z	AC_x	GH_y	GH_z	GH_yy	EL_x	PS_y
       0.0              -46.15          5.393           16.5          33.32         -6.604           14.7         -118.9          21.51          146.8          107.1          156.5
   0.02599              -46.15          5.396           16.5          33.32         -6.604           14.7         -118.9          21.51          146.7          107.1          156.5
   0.05198              -46.15            5.4           16.5          33.33         -6.604           14.7         -118.9          21.52          146.7          107.1          156.5
   0.07797              -46.15          5.404           16.5          33.33         -6.603           14.7         -118.9          21.53          146.6          107.1          156.5
     0.104              -46.15          5.408           16.5          33.34         -6.603           14.7         -118.9          21.54          146.6          107.1          156.5
    0.1299              -46.15          5.412           16.5          33.34         -6.602           14.7         -118.9          21.55          146.5          107.1          156.5
    0.1559              -46.15          5.417          16.49          33.35         -6.601           14.7         -118.9          21.55          146.4          107.1          156.5
    0.1819              -46.15          5.422          16.49          33.35         -6.601           14.7         -118.8          21.56          146.4          107.1          156.5
    0.2079              -46.14          5.428          16.49          33.36           -6.6           14.7         -118.8          21.58          146.3          107.1          156.5
    0.2339              -46.14          5.433          16.49          33.37         -6.599           14.7         -118.8          21.59          146.2          107.1          156.5
    0.2599              -46.14           5.44          16.49          33.38         -6.598           14.7         -118.8           21.6          146.1          107.1          156.5
    0.2859              -46.14          5.446          16.49          33.38         -6.598           14.7         -118.8          21.61          146.1          107.1          156.5
    0.3119              -46.14          5.453          16.49          33.39         -6.597           14.7         -118.8          21.63          146.0          107.1          156.5
    0.3379              -46.14          5.461          16.49           33.4         -6.596           14.7         -118.8          21.64          145.9          107.1          156.5
    0.3638              -46.14           5.47          16.48          33.42         -6.595           14.7         -118.8          21.66          145.7          107.2          156.5
    0.3898              -46.14          5.479          16.48          33.43         -6.593           14.7         -118.8          21.68          145.6          107.2          156.4
    0.4158              -46.14          5.489          16.48          33.44         -6.592           14.7         -118.8           21.7          145.5          107.2          156.4
    0.4418              -46.14            5.5          16.48          33.45         -6.591           14.7         -118.8          21.72          145.4          107.2          156.4
    0.4678              -46.14          5.511          16.48          33.47         -6.589           14.7         -118.7          21.74          145.2          107.2          156.4
    0.4938              -46.13          5.524          16.48          33.49         -6.588           14.7         -118.7          21.77          145.0          107.2          156.4
    0.5198              -46.13          5.539          16.47           33.5         -6.586           14.7         -118.7          21.79          144.8          107.2          156.4
    0.5458              -46.13          5.554          16.47          33.52         -6.584          14.69         -118.7          21.82          144.6          107.2          156.4
    0.5717              -46.13          5.571          16.47          33.55         -6.582          14.69         -118.7          21.86          144.4          107.2          156.4
    0.5977              -46.13          5.591          16.46          33.57         -6.579          14.69         -118.7           21.9          144.2          107.2          156.4
    0.6237              -46.13          5.612          16.46           33.6         -6.576          14.69         -118.6          21.94          143.9          107.2          156.4
    0.6497              -46.12          5.636          16.46          33.63         -6.573          14.69         -118.6          21.99          143.6          107.2          156.3
    0.6757              -46.12          5.662          16.45          33.66          -6.57          14.69         -118.6          22.04          143.2          107.2          156.3
    0.7017              -46.12          5.692          16.45           33.7         -6.566          14.69         -118.5           22.1          142.8          107.2          156.3
    0.7277              -46.11          5.726          16.44          33.74         -6.562          14.69         -118.5          22.16          142.4          107.2          156.3
    0.7537              -46.11          5.764          16.43          33.79         -6.557          14.69         -118.5          22.24          141.9          107.2          156.2
    0.7797               -46.1          5.808          16.42          33.85         -6.551          14.69         -118.4          22.33          141.3          107.2          156.2
    0.8056               -46.1          5.858          16.42          33.92         -6.545          14.69         -118.4          22.42          140.6          107.2          156.2
    0.8316              -46.09          5.916          16.41          33.99         -6.537          14.69         -118.3          22.54          139.9          107.2          156.1
    0.8576              -46.09          5.984          16.39          34.08         -6.529          14.69         -118.2          22.67          139.0          107.2          156.1
    0.8836              -46.08          6.063          16.38          34.18         -6.519          14.69         -118.1          22.83          137.9          107.2          156.0
    0.9096              -46.07          6.156          16.36           34.3         -6.507          14.69         -118.0          23.01          136.7          107.2          156.0
    0.9356              -46.05          6.266          16.34          34.44         -6.493          14.68         -117.9          23.23          135.3          107.3          155.9
    0.9616              -46.04          6.399          16.32          34.61         -6.476          14.68         -117.7          23.49          133.5          107.3          155.8
    0.9876              -46.02          6.559          16.29          34.82         -6.455          14.68         -117.6          23.81          131.4          107.3          155.7
     1.014               -46.0          6.755          16.26          35.07          -6.43          14.68         -117.3          24.19          128.8          107.3          155.5
      1.04              -45.98          6.997          16.21          35.38         -6.399          14.67         -117.1          24.67          125.7          107.4          155.3
     1.066              -45.94          7.298          16.16          35.77          -6.36          14.67         -116.7          25.27          121.7          107.4          155.1
     1.092               -45.9          7.678          16.09          36.26         -6.312          14.66         -116.3          26.01          116.7          107.5          154.8
     1.118              -45.85           8.16          16.01          36.88          -6.25          14.65         -115.7          26.97          110.4          107.5          154.5
     1.143              -45.79          8.778           15.9          37.67         -6.171          14.64         -115.0          28.18          102.3          107.6          154.0
     1.169               -45.7          9.571          15.76           38.7         -6.069          14.63         -114.1          29.75          91.83          107.7          153.5
     1.195              -45.59          10.58          15.58           40.0         -5.939          14.61         -113.0          31.75          78.52          107.9          152.7
     1.221              -45.46          11.86          15.35          41.64         -5.776          14.59         -111.6          34.26          61.79          108.1          151.8
     1.247              -45.29          13.41          15.08          43.64         -5.577          14.57         -109.8          37.32          41.39          108.3          150.7
